<svg id="Layer_1" data-name="Layer 1" xmlns="http://www.w3.org/2000/svg" viewBox="0 0 512 512"><title>brains-flat</title><path d="M0,256C0,114.62,114.62,0,256,0S512,114.63,512,256,397.37,512,256,512,0,397.38,0,256Z" fill="#000000" id="id_101"></path><path d="M368.49,200a36.64,36.64,0,0,0-13-9.47c-1.58-2.36-3.15-4.33-4.72-6.3-7.89-9.07-41.79-22.47-54-24.45a60.66,60.66,0,0,0-22.46.79,39.49,39.49,0,0,0-39.82,5.53c-16.56-7.89-39,.79-47.31,16.56-17,3.94-31.93,20.1-31.93,37.44-12.22,7.1-18.54,26-21.29,39.43-3.15,16.17,4.72,52,24.45,56,1.18,0,22.07,50.85,65.44,36.27,22.87-9.45,40.22-21.68,43.76-41,14.59,7.5,27.6,2.38,40.61-4.33,12.62-5.91,24.45-12.22,29.18-27.6,11.83.79,22.87-4.33,27.59-13.8a19.24,19.24,0,0,0,1.58-4.34c17.73-10.64,14.19-46.91,2-60.71Z" fill="#ffffff" fill-rule="evenodd" id="id_102"></path></svg>